<?xml version="1.0" standalone="no"?>
<!DOCTYPE svg PUBLIC "-//W3C//DTD SVG 20010904//EN"
 "http://www.w3.org/TR/2001/REC-SVG-20010904/DTD/svg10.dtd">
<svg version="1.0" xmlns="http://www.w3.org/2000/svg"
 width="1386.000000pt" height="1386.000000pt" viewBox="0 0 1386.000000 1386.000000"
 preserveAspectRatio="xMidYMid meet">
<metadata>
Created by potrace 1.11, written by Peter Selinger 2001-2013
</metadata>
<g transform="translate(0.000000,1386.000000) scale(0.100000,-0.100000)"
fill="#000000" stroke="none">
<path d="M4767 13854 c-1 -1 -56 -5 -122 -8 -65 -4 -133 -9 -150 -11 -34 -5
-112 -14 -165 -21 -19 -2 -46 -6 -60 -9 -14 -3 -41 -7 -60 -10 -254 -40 -657
-159 -890 -262 -414 -184 -758 -406 -1011 -654 -83 -82 -129 -132 -249 -275
-20 -24 -157 -225 -197 -289 -198 -320 -382 -800 -464 -1209 -11 -56 -21 -108
-23 -116 -2 -8 -7 -37 -10 -65 -4 -27 -10 -66 -12 -85 -3 -19 -7 -46 -10 -60
-2 -14 -6 -56 -10 -95 -3 -38 -7 -75 -9 -81 -25 -79 -26 -931 -1 -1059 2 -11
7 -54 11 -95 7 -75 10 -93 20 -140 3 -14 7 -41 10 -60 3 -19 7 -44 9 -55 3
-11 12 -53 21 -94 32 -151 76 -297 141 -468 198 -518 544 -965 954 -1229 41
-26 120 -72 175 -101 l100 -52 -57 -25 c-112 -49 -124 -55 -197 -96 -217 -119
-410 -280 -626 -520 -94 -104 -270 -353 -343 -485 -38 -69 -142 -284 -142
-294 0 -3 -6 -17 -13 -31 -7 -14 -21 -47 -31 -75 -10 -27 -22 -59 -27 -70 -53
-117 -195 -663 -224 -865 -3 -25 -8 -57 -11 -73 -10 -61 -14 -94 -19 -142 -3
-27 -8 -72 -11 -100 -8 -59 -9 -75 -19 -265 -13 -231 -7 -695 10 -830 1 -14 6
-68 10 -120 4 -52 9 -97 10 -100 2 -3 6 -33 10 -65 10 -91 32 -229 40 -253 2
-7 7 -31 10 -55 5 -36 37 -183 49 -227 3 -8 13 -51 24 -95 32 -128 115 -371
168 -492 8 -18 21 -50 30 -70 71 -166 206 -410 299 -543 179 -257 418 -507
658 -688 261 -197 634 -398 922 -496 44 -15 89 -31 100 -36 29 -14 282 -77
335 -85 25 -3 52 -8 61 -11 9 -2 35 -7 58 -9 22 -3 60 -7 84 -10 23 -3 69 -8
102 -11 64 -5 5753 -6 5820 0 50 4 162 16 195 21 55 9 96 16 110 20 8 2 31 7
50 10 19 3 62 13 95 21 33 9 65 17 70 18 152 38 402 134 589 228 134 67 337
184 391 225 6 5 30 21 55 37 50 33 202 146 210 157 3 4 25 23 50 44 68 56 207
192 281 276 468 523 777 1295 864 2154 34 340 40 960 11 1190 -2 17 -7 61 -11
99 -3 37 -8 82 -11 100 -2 17 -6 49 -9 71 -22 167 -80 436 -141 655 -130 463
-299 814 -545 1133 -277 358 -565 591 -929 752 l-64 28 64 32 c554 270 990
805 1219 1493 38 114 83 277 95 347 3 17 8 41 11 55 6 30 13 69 20 113 3 17 7
43 10 57 2 14 7 44 10 68 3 23 7 59 10 80 2 20 7 71 10 112 3 41 8 102 11 135
5 66 5 514 0 610 -7 124 -17 251 -21 275 -2 14 -7 54 -10 90 -3 36 -8 76 -10
90 -2 14 -11 70 -20 125 -97 622 -364 1255 -715 1695 -86 108 -288 316 -374
385 -153 124 -296 221 -471 320 -135 77 -365 189 -470 229 -38 15 -79 31 -90
36 -37 17 -228 79 -340 109 -177 48 -349 84 -515 107 -30 4 -62 8 -70 10 -8 1
-51 5 -95 9 -44 3 -96 9 -115 12 -32 5 -4478 12 -4483 7z m1033 -2125 c4 -6 5
-3471 1 -3516 -1 -9 -122 -11 -518 -8 -285 2 -534 6 -553 8 -485 72 -802 310
-1015 759 -74 157 -117 298 -150 493 -16 92 -18 110 -31 250 -10 104 -11 499
-1 593 12 119 18 166 22 172 2 3 6 26 10 50 33 232 166 548 297 706 246 298
553 461 923 490 44 4 81 7 82 8 7 6 929 1 933 -5z m3315 -3 c419 -52 739 -248
967 -591 134 -203 226 -495 258 -825 10 -100 14 -451 6 -535 -2 -22 -7 -69
-10 -105 -12 -124 -15 -146 -41 -275 -42 -210 -115 -404 -219 -579 -168 -285
-424 -481 -731 -561 -182 -47 -221 -49 -790 -50 l-499 0 -1 1760 c0 968 0
1763 2 1766 3 8 987 3 1058 -5z m-3318 -5530 c12 -12 9 -4134 -2 -4130 -6 3
-240 6 -520 8 -281 2 -521 6 -535 9 -14 3 -43 8 -65 11 -203 26 -420 110 -592
227 -91 63 -257 225 -330 323 -88 119 -194 311 -244 441 -11 28 -24 59 -29 70
-33 71 -93 295 -110 410 -6 44 -13 91 -15 105 -33 196 -21 778 20 1010 2 14 7
43 10 65 3 22 10 63 15 90 6 28 12 59 14 70 21 107 69 265 118 393 154 399
444 687 818 814 47 16 99 31 115 34 17 3 47 9 69 15 21 6 57 13 80 15 22 3 52
7 66 10 14 2 77 7 140 10 63 4 116 7 117 8 6 5 855 -3 860 -8z m3273 0 c58 -3
114 -7 125 -10 11 -2 43 -7 70 -10 28 -4 68 -12 90 -18 22 -5 51 -12 64 -15
82 -15 283 -101 385 -165 124 -78 272 -221 356 -342 19 -28 40 -56 46 -63 29
-31 138 -272 178 -393 43 -133 91 -326 101 -411 3 -24 7 -53 9 -64 2 -12 7
-48 11 -80 4 -33 8 -70 10 -82 13 -84 20 -257 19 -498 -1 -311 -12 -418 -68
-665 -48 -207 -210 -559 -333 -720 -181 -239 -379 -392 -633 -490 -69 -27
-218 -66 -290 -75 -30 -5 -66 -10 -80 -13 -45 -8 -1065 -10 -1070 -2 -4 6 -5
4077 -1 4115 1 11 826 12 1011 1z"/>
</g>
</svg>
